<?xml version="1.0" encoding="UTF-8" standalone="no"?>
<!-- Created with Inkscape (http://www.inkscape.org/) -->

<svg
   width="95.78083mm"
   height="98.643524mm"
   viewBox="0 0 95.78083 98.643524"
   version="1.1"
   id="svg5"
   xml:space="preserve"
   xmlns:inkscape="http://www.inkscape.org/namespaces/inkscape"
   xmlns:sodipodi="http://sodipodi.sourceforge.net/DTD/sodipodi-0.dtd"
   xmlns="http://www.w3.org/2000/svg"
   xmlns:svg="http://www.w3.org/2000/svg"><sodipodi:namedview
     id="namedview7"
     pagecolor="#ffffff"
     bordercolor="#000000"
     borderopacity="0.25"
     inkscape:showpageshadow="2"
     inkscape:pageopacity="0.0"
     inkscape:pagecheckerboard="0"
     inkscape:deskcolor="#d1d1d1"
     inkscape:document-units="mm"
     showgrid="false" /><defs
     id="defs2" /><g
     inkscape:label="Layer 1"
     inkscape:groupmode="layer"
     id="layer1"
     transform="translate(-40.202813,-196.25442)"><path
       style="fill:#000000;stroke-width:0.264583"
       d="m 86.586286,294.42657 c -0.56123,-0.34221 -0.94908,-0.86129 -1.15361,-1.54394 -0.42584,-1.42135 -0.22715,-7.1374 0.27497,-7.91059 1.06121,-1.63408 3.70995,-1.63408 4.77116,0 0.49803,0.76688 0.69001,6.25936 0.27293,7.80829 -0.52005,1.93131 -2.44817,2.69332 -4.16545,1.64624 z m -36.19618,-2.88679 c -4.7678,-1.37003 -8.53829,-5.22856 -9.76731,-9.99536 -0.3724,-1.44436 -0.41915,-5.61616 -0.41915,-37.40035 0,-39.50464 -0.0925,-37.26189 1.67592,-40.6135 1.07176,-2.0312 3.56896,-4.5284 5.60016,-5.60016 3.0962,-1.6337 3.53507,-1.67592 17.42205,-1.67592 8.48399,0 12.78851,0.0935 13.2134,0.28713 0.3466,0.15792 0.82845,0.62277 1.07078,1.03301 0.40218,0.68083 0.43914,2.71519 0.42383,23.32693 -0.009,12.73679 -0.11529,22.35036 -0.24276,22.05189 -0.4271,-1.00009 -12.26703,-12.55526 -13.10418,-12.78902 -1.86618,-0.5211 -3.56962,0.75933 -3.56962,2.68319 0,1.01697 0.17143,1.24061 3.61521,4.71611 l 3.61521,3.6485 -8.48905,0.0769 -8.48905,0.0769 -0.67836,0.63762 c -0.90857,0.85402 -1.14361,2.20679 -0.58644,3.37519 0.759,1.59163 1.27408,1.67573 10.26418,1.67573 h 7.99994 l -3.62582,3.65922 c -3.47754,3.50957 -3.62582,3.70373 -3.62582,4.74774 0,1.88219 1.71805,3.16688 3.57188,2.67091 0.53973,-0.1444 2.80469,-2.23017 7.0776,-6.51766 l 6.28385,-6.3053 v 22.15428 c 0,13.16535 -0.10077,22.41933 -0.24837,22.80755 -0.13661,0.3593 -0.51625,0.90283 -0.84364,1.20785 -0.58818,0.54797 -0.74977,0.55435 -13.5761,0.53572 -11.46138,-0.0166 -13.16667,-0.0722 -14.56834,-0.47502 z m 47.2618,-0.0607 c -0.32739,-0.30502 -0.70703,-0.84855 -0.84364,-1.20785 -0.1476,-0.38822 -0.24837,-9.6422 -0.24837,-22.80755 V 245.3094 l 6.283854,6.3053 c 4.27291,4.28749 6.53787,6.37326 7.0776,6.51766 1.85383,0.49597 3.57188,-0.78872 3.57188,-2.67091 0,-1.04401 -0.14828,-1.23817 -3.62582,-4.74774 l -3.62582,-3.65922 h 7.99994 c 8.9901,0 9.50518,-0.0841 10.26418,-1.67573 0.55717,-1.1684 0.32213,-2.52117 -0.58644,-3.37519 l -0.67836,-0.63762 -8.48905,-0.0769 -8.48905,-0.0769 3.61521,-3.6485 c 3.44378,-3.4755 3.61521,-3.69914 3.61521,-4.71611 0,-1.92386 -1.70344,-3.20429 -3.56962,-2.68319 -0.83715,0.23376 -12.677084,11.78893 -13.104184,12.78902 -0.12747,0.29847 -0.2333,-9.3151 -0.24276,-22.05189 -0.0153,-20.61174 0.0216,-22.6461 0.42383,-23.32693 0.24233,-0.41024 0.72418,-0.87509 1.07078,-1.03301 0.42489,-0.19359 4.729414,-0.28713 13.213404,-0.28713 13.88698,0 14.32585,0.0422 17.42205,1.67592 2.0312,1.07176 4.5284,3.56896 5.60016,5.60016 1.76847,3.35161 1.67592,1.10886 1.67592,40.6135 0,39.50464 0.0926,37.26189 -1.67592,40.6135 -1.07176,2.0312 -3.56896,4.5284 -5.60016,5.60016 -3.10245,1.637 -3.51235,1.67592 -17.6492,1.67592 -12.640274,0 -12.818264,-0.007 -13.405624,-0.55457 z m -11.11526,-16.81021 c -1.03412,-0.72434 -1.35384,-1.93457 -1.35384,-5.1248 0,-4.16358 0.7295,-5.55625 2.91042,-5.55625 2.18092,0 2.91042,1.39267 2.91042,5.55625 0,4.16358 -0.7295,5.55625 -2.91042,5.55625 -0.51732,0 -1.21778,-0.19416 -1.55658,-0.43145 z m 0,-16.93334 c -1.03412,-0.72433 -1.35384,-1.93456 -1.35384,-5.12479 0,-4.16359 0.7295,-5.55625 2.91042,-5.55625 2.18092,0 2.91042,1.39266 2.91042,5.55625 0,4.16358 -0.7295,5.55625 -2.91042,5.55625 -0.51732,0 -1.21778,-0.19416 -1.55658,-0.43146 z m 0,-16.93333 c -1.03412,-0.72433 -1.35384,-1.93457 -1.35384,-5.1248 0,-4.16358 0.7295,-5.55625 2.91042,-5.55625 2.18092,0 2.91042,1.39267 2.91042,5.55625 0,4.16359 -0.7295,5.55625 -2.91042,5.55625 -0.51732,0 -1.21778,-0.19415 -1.55658,-0.43145 z m 0,-16.93333 c -1.03412,-0.72433 -1.35384,-1.93457 -1.35384,-5.1248 0,-4.16358 0.7295,-5.55625 2.91042,-5.55625 2.18092,0 2.91042,1.39267 2.91042,5.55625 0,4.16358 -0.7295,5.55625 -2.91042,5.55625 -0.51732,0 -1.21778,-0.19415 -1.55658,-0.43145 z m 0,-16.93333 c -1.03412,-0.72434 -1.35384,-1.93457 -1.35384,-5.1248 0,-4.16358 0.7295,-5.55625 2.91042,-5.55625 2.18092,0 2.91042,1.39267 2.91042,5.55625 0,4.16358 -0.7295,5.55625 -2.91042,5.55625 -0.51732,0 -1.21778,-0.19416 -1.55658,-0.43145 z"
       id="path1722" /></g></svg>
