<?xml version="1.0" encoding="UTF-8" standalone="no"?>
<!-- Created with Inkscape (http://www.inkscape.org/) -->

<svg
   width="118.52962mm"
   height="118.51024mm"
   viewBox="0 0 118.52962 118.51024"
   version="1.1"
   id="svg5"
   xml:space="preserve"
   xmlns:inkscape="http://www.inkscape.org/namespaces/inkscape"
   xmlns:sodipodi="http://sodipodi.sourceforge.net/DTD/sodipodi-0.dtd"
   xmlns="http://www.w3.org/2000/svg"
   xmlns:svg="http://www.w3.org/2000/svg"><sodipodi:namedview
     id="namedview7"
     pagecolor="#ffffff"
     bordercolor="#000000"
     borderopacity="0.25"
     inkscape:showpageshadow="2"
     inkscape:pageopacity="0.0"
     inkscape:pagecheckerboard="0"
     inkscape:deskcolor="#d1d1d1"
     inkscape:document-units="mm"
     showgrid="false" /><defs
     id="defs2" /><g
     inkscape:label="Layer 1"
     inkscape:groupmode="layer"
     id="layer1"
     transform="translate(-48.96404,-53.998152)"><path
       style="fill:#000000;stroke-width:0.264583"
       d="m 65.927438,172.23111 c -6.967922,-1.15735 -13.445327,-6.64896 -15.780837,-13.37915 -1.044768,-3.01069 -1.180358,-4.76034 -1.182452,-15.25844 -0.0019,-9.71571 0.01492,-10.04824 0.558359,-11.01517 1.583899,-2.81817 5.721725,-2.74185 7.112535,0.13118 0.500336,1.03355 0.52919,1.63377 0.52919,11.0082 0,10.75239 0.101863,11.72609 1.494361,14.28457 0.87607,1.60963 3.220993,3.95455 4.830621,4.83062 2.558479,1.3925 3.532181,1.49436 14.284569,1.49436 9.374431,0 9.974649,0.0289 11.008204,0.52919 2.91624,1.41173 2.9918,5.55705 0.128905,7.07099 -1.130459,0.5978 -1.207876,0.6017 -11.349212,0.57098 -5.616046,-0.017 -10.851454,-0.13731 -11.634243,-0.26733 z m 61.538572,-0.24485 c -1.36076,-0.73149 -2.0373,-1.913 -2.0373,-3.55793 0,-1.72756 0.72745,-2.91921 2.1863,-3.58145 1.03899,-0.47165 1.82931,-0.50839 11.05144,-0.51379 10.76834,-0.006 11.74556,-0.1088 14.30197,-1.50017 1.60962,-0.87607 3.95455,-3.22099 4.83062,-4.83062 1.39137,-2.5564 1.49387,-3.53362 1.50017,-14.30196 0.005,-9.11096 0.0465,-10.02205 0.49792,-11.01602 1.34006,-2.95068 5.66409,-3.01736 7.20844,-0.11116 0.45217,0.8509 0.48976,1.69666 0.48791,10.98021 -0.001,5.74508 -0.12112,10.79577 -0.27978,11.77808 -1.06588,6.59896 -5.62512,12.58484 -11.67467,15.32784 -3.68946,1.67288 -3.81609,1.68701 -15.95709,1.78065 -10.7644,0.083 -11.14393,0.0688 -12.11593,-0.45368 z M 83.887149,130.93782 c -2.449672,-0.67652 -3.719761,-3.777 -2.420184,-5.90805 0.268539,-0.44035 2.344391,-2.28582 4.613002,-4.10104 2.268612,-1.81522 4.132048,-3.3897 4.140965,-3.49884 0.0089,-0.10914 -7.335893,-0.19888 -16.321804,-0.19943 -15.836113,-10e-4 -16.36451,-0.0171 -17.200334,-0.52675 -2.555571,-1.55814 -2.555571,-5.32387 0,-6.88202 0.835824,-0.50961 1.364221,-0.52579 17.200334,-0.52675 8.985911,-5.3e-4 16.330723,-0.0903 16.321804,-0.19942 -0.0089,-0.10914 -1.872353,-1.68362 -4.140965,-3.49884 -2.268611,-1.81522 -4.344463,-3.66069 -4.613002,-4.10104 -1.062564,-1.742395 -0.383733,-4.329135 1.425578,-5.432285 0.918943,-0.56028 2.656879,-0.69438 3.68936,-0.28466 1.000025,0.39683 18.294347,14.552205 18.853527,15.431575 0.73281,1.15242 0.68736,3.07628 -0.0995,4.21076 -0.62221,0.89712 -17.901379,15.02775 -18.742289,15.32715 -1.056224,0.37607 -1.834089,0.43057 -2.706512,0.18964 z m 45.905211,-0.20896 c -0.97702,-0.41984 -18.25015,-14.6112 -18.77016,-15.4213 -0.68237,-1.06305 -0.68237,-3.02667 0,-4.08971 0.56219,-0.8758 17.86158,-15.040535 18.85353,-15.437255 1.02943,-0.41171 2.769,-0.27838 3.68936,0.28276 1.81421,1.10614 2.48824,3.68968 1.41976,5.441845 -0.27174,0.44561 -2.28875,2.262 -4.48226,4.03643 -2.19351,1.77442 -4.06135,3.3446 -4.15076,3.48927 -0.10709,0.17326 5.42872,0.26305 16.21808,0.26305 h 16.38065 l 0.87214,0.59532 c 2.41588,1.64905 2.41588,5.09782 0,6.74687 l -0.87214,0.59531 h -16.38065 c -10.78936,0 -16.32517,0.0898 -16.21808,0.26305 0.0894,0.14468 1.95725,1.71485 4.15076,3.48928 2.19351,1.77442 4.21052,3.59082 4.48226,4.03643 1.06848,1.75216 0.39445,4.3357 -1.41976,5.44184 -0.90386,0.55109 -2.79923,0.68513 -3.77273,0.26681 z M 50.8141,95.469475 c -0.479676,-0.32742 -1.097495,-1.01203 -1.372931,-1.52135 -0.473432,-0.87545 -0.495414,-1.53317 -0.402339,-12.03854 0.08531,-9.62912 0.160477,-11.32314 0.563085,-12.69046 2.123876,-7.213 7.370316,-12.45944 14.583317,-14.58332 1.36732,-0.40261 3.061345,-0.47777 12.690459,-0.56309 10.505376,-0.0931 11.163093,-0.0711 12.038541,0.40234 2.910416,1.57392 2.846606,5.87794 -0.107035,7.21933 -0.993971,0.45142 -1.905061,0.4926 -11.016022,0.49793 -10.768334,0.006 -11.745557,0.1088 -14.30196,1.50017 -1.609628,0.87607 -3.954551,3.22099 -4.830621,4.83062 -1.391368,2.5564 -1.493872,3.53363 -1.500172,14.30196 -0.0053,9.11096 -0.04651,10.02205 -0.497924,11.01602 -0.967044,2.12935 -3.911156,2.94936 -5.846398,1.62839 z m 110.52764,0.007 c -0.60818,-0.35251 -1.19903,-0.99912 -1.52135,-1.66496 -0.49753,-1.02775 -0.52699,-1.64302 -0.52699,-11.00367 0,-10.75239 -0.10187,-11.72609 -1.49436,-14.28457 -0.87607,-1.60962 -3.221,-3.95455 -4.83062,-4.83062 -2.55641,-1.39137 -3.53363,-1.49387 -14.30197,-1.50017 -9.11096,-0.005 -10.02205,-0.0465 -11.01602,-0.49792 -2.95068,-1.34006 -3.01736,-5.66409 -0.11116,-7.20845 0.8509,-0.45217 1.69666,-0.48975 10.98021,-0.4879 10.53973,0.002 12.28616,0.13708 15.29859,1.18245 5.5806,1.93658 10.55638,6.91236 12.49296,12.49296 1.04368,3.00755 1.18036,4.76298 1.18245,15.1867 0.002,9.83902 -0.004,9.9587 -0.59991,11.08463 -1.07799,2.03852 -3.5165,2.7112 -5.55183,1.53152 z"
       id="path1582" /></g></svg>
